<svg xmlns="http://www.w3.org/2000/svg" viewBox="0 0 405.84 120.00"><g transform="translate(18.000,102.000) scale(0.120000,-0.120000)"><path d="M120 700V0H572V55H211V348H521V394H211V645H572V700Z" fill="#ffffff"/></g><g transform="translate(90.240,102.000) scale(0.120000,-0.120000)"><path d="M130 0V700H360Q443 700 512.0 673.5Q581 647 630.5 600.5Q680 554 707.5 490.0Q735 426 735 352Q735 275 706.5 210.5Q678 146 628.5 99.0Q579 52 513.0 26.0Q447 0 372 0ZM221 44H331Q413 44 470.5 71.5Q528 99 565.0 143.0Q602 187 619.0 241.5Q636 296 636 350Q636 410 616.0 465.5Q596 521 557.5 563.5Q519 606 462.0 631.0Q405 656 331 656H221Z" fill="#ffffff"/></g><g transform="translate(182.040,102.000) scale(0.120000,-0.120000)"><path d="M50 350Q50 294 71.5 230.5Q93 167 139.0 113.0Q185 59 256.0 23.5Q327 -12 426 -12Q493 -12 547.5 4.5Q602 21 645.5 49.0Q689 77 721.0 113.5Q753 150 773.5 190.5Q794 231 804.5 272.0Q815 313 815 350Q815 406 792.0 469.5Q769 533 721.0 587.0Q673 641 599.5 676.5Q526 712 426 712Q327 712 256.0 677.0Q185 642 139.0 588.5Q93 535 71.5 471.0Q50 407 50 350ZM148 350Q148 420 169.5 478.5Q191 537 228.5 579.0Q266 621 317.0 644.5Q368 668 428 668Q487 668 539.5 644.5Q592 621 631.5 579.0Q671 537 694.0 478.5Q717 420 717 350Q717 280 694.0 221.5Q671 163 631.5 121.0Q592 79 539.5 55.5Q487 32 428 32Q368 32 317.0 55.5Q266 79 228.5 121.0Q191 163 169.5 221.5Q148 280 148 350Z" fill="#ffffff"/></g><g transform="translate(285.840,102.000) scale(0.120000,-0.120000)"><path d="M684 700V165H680L125 712H120V0H166V535H170L725 -12H730V700Z" fill="#ffffff"/></g></svg>